<svg xmlns="http://www.w3.org/2000/svg" width="24" height="24" viewBox="0 0 197 229" fill="none">
  <path d="M 97.00 224.06 C95.62,223.64 82.80,215.95 68.50,206.97 C54.20,197.99 35.53,186.33 27.00,181.06 C5.01,167.45 7.00,174.09 7.00,114.52 C7.00,59.07 6.50,62.17 16.57,55.67 C34.25,44.25 90.14,9.29 94.00,7.24 C102.10,2.94 103.03,3.32 136.00,24.43 C141.36,27.86 153.81,35.66 172.00,46.99 C181.07,52.64 189.50,58.17 190.72,59.27 C195.89,63.97 196.17,67.16 195.82,116.72 C195.47,166.97 195.59,166.00 189.27,171.01 C183.55,175.55 144.43,199.93 142.82,199.97 C141.90,199.98 140.44,199.29 139.57,198.43 C138.19,197.05 138.00,191.82 138.00,156.10 C138.00,133.68 137.75,115.09 137.45,114.78 C137.15,114.48 133.11,116.77 128.49,119.87 L 120.07 125.50 L 120.04 170.24 L 120.00 214.99 L 115.75 218.12 C107.56,224.14 102.51,225.75 97.00,224.06 ZM 99.00 164.09 L 99.00 127.18 L 92.42 123.02 C84.51,118.03 82.34,114.17 83.98,108.07 C85.05,104.11 87.82,101.58 92.35,100.45 C94.23,99.98 96.75,100.80 101.84,103.55 L 108.78 107.30 L 112.64 104.94 C114.76,103.64 123.83,97.74 132.79,91.84 C141.76,85.94 149.99,80.82 151.09,80.47 C152.25,80.10 154.14,80.51 155.55,81.44 L 158.00 83.05 L 158.00 124.52 C158.00,147.34 158.22,166.00 158.49,166.00 C160.49,166.00 173.24,156.50 174.03,154.42 C175.12,151.55 175.21,78.95 174.12,75.07 C173.72,73.61 171.44,71.42 168.47,69.62 C165.74,67.96 152.93,59.85 140.00,51.61 C127.07,43.36 112.98,34.47 108.67,31.86 L 100.84 27.10 L 91.67 33.02 C86.63,36.27 70.48,46.49 55.80,55.72 C35.81,68.28 28.90,73.13 28.30,75.00 C27.86,76.38 27.73,95.48 28.00,117.46 L 28.50 157.43 L 43.00 166.41 C50.97,171.35 66.50,181.12 77.50,188.12 C88.50,195.11 97.84,200.88 98.25,200.92 C98.66,200.96 99.00,184.39 99.00,164.09 ZM 76.24 166.96 C68.57,163.13 57.52,152.92 53.12,145.60 C51.27,142.51 48.60,136.95 47.19,133.24 C44.95,127.35 44.63,124.93 44.60,114.00 C44.56,100.02 46.11,94.03 52.73,82.74 C64.96,61.88 91.59,50.57 114.48,56.54 C132.56,61.25 135.61,67.12 124.04,74.97 C120.78,77.19 117.61,79.00 116.99,79.00 C116.38,79.00 113.63,78.27 110.90,77.37 C104.42,75.25 93.25,75.90 86.78,78.77 C79.81,81.86 72.48,89.23 68.75,96.91 C65.80,102.97 65.54,104.31 65.52,113.50 C65.50,122.42 65.81,124.17 68.37,129.71 C71.59,136.69 80.65,146.12 86.46,148.55 L 90.00 150.03 L 90.00 158.81 C90.00,164.31 89.55,168.05 88.80,168.80 C86.82,170.78 82.67,170.17 76.24,166.96 Z" fill="currentColor"/>
</svg>
